<?xml version="1.0" encoding="iso-8859-1"?>
<!-- Generator: Adobe Illustrator 19.0.0, SVG Export Plug-In . SVG Version: 6.00 Build 0)  -->
<svg version="1.1" id="Capa_1" xmlns="http://www.w3.org/2000/svg" xmlns:xlink="http://www.w3.org/1999/xlink" x="0px" y="0px"
	 viewBox="0 0 512 512" style="enable-background:new 0 0 512 512;" xml:space="preserve">
<g>
	<g>
		<path d="M467,0H45C20.187,0,0,20.187,0,45v422c0,24.813,20.187,45,45,45h422c24.813,0,45-20.187,45-45V45
			C512,20.187,491.813,0,467,0z M482,467c0,8.271-6.729,15-15,15H45c-8.271,0-15-6.729-15-15V45c0-8.271,6.729-15,15-15h422
			c8.271,0,15,6.729,15,15V467z"/>
	</g>
</g>
<g>
	<g>
		<path d="M270.045,370.733l-90-240C177.85,124.879,172.252,121,166,121s-11.85,3.879-14.045,9.733l-90,240
			c-2.909,7.757,1.021,16.403,8.778,19.312c7.758,2.909,16.403-1.021,19.312-8.778l30.1-80.267h91.71l30.1,80.267
			c2.91,7.759,11.556,11.687,19.312,8.778C269.023,387.136,272.954,378.49,270.045,370.733z M131.395,271L166,178.72L200.605,271
			H131.395z"/>
	</g>
</g>
<g>
	<g>
		<path d="M361,211c-11.474,0-22.203,3.243-31.328,8.852C327.323,214.637,322.091,211,316,211c-8.284,0-15,6.716-15,15v45v105
			c0,8.284,6.716,15,15,15s15-6.716,15-15V271c0-16.542,13.458-30,30-30s30,13.458,30,30v105c0,8.284,6.716,15,15,15s15-6.716,15-15
			V271C421,237.916,394.084,211,361,211z"/>
	</g>
</g>
<g>
</g>
<g>
</g>
<g>
</g>
<g>
</g>
<g>
</g>
<g>
</g>
<g>
</g>
<g>
</g>
<g>
</g>
<g>
</g>
<g>
</g>
<g>
</g>
<g>
</g>
<g>
</g>
<g>
</g>
</svg>
